<svg xmlns="http://www.w3.org/2000/svg" width="29.99" height="29.93" viewBox="0 0 29.99 29.93">
  <defs>
    <style>
      .cls-1 {
        fill: #fff;
      }
    </style>
  </defs>
  <title>Asset 1</title>
  <g id="Layer_2" data-name="Layer 2">
    <g id="Layer_1-2" data-name="Layer 1">
      <g>
        <path class="cls-1" d="M15.33,17.57A2.6,2.6,0,0,0,18.26,16l6-12.31-9.82,9.15a4,4,0,0,0-1.12,1.66A2.61,2.61,0,0,0,15.33,17.57Z"/>
        <path class="cls-1" d="M23.65,2.71a14.91,14.91,0,0,0-7-2.66V2.59a12.38,12.38,0,0,1,5.12,1.87Z"/>
        <path class="cls-1" d="M25.18,3.95,24,6.32A12.49,12.49,0,1,1,13.86,2.51V0A15,15,0,1,0,25.18,3.95Z"/>
      </g>
    </g>
  </g>
</svg>
