<svg xmlns="http://www.w3.org/2000/svg" width="23.73" height="23.23" viewBox="0 0 23.73 23.23">
  <defs>
    <style>
      .cls-1 {
        fill: #fff;
      }
    </style>
  </defs>
  <title>Asset 2</title>
  <g id="Layer_2" data-name="Layer 2">
    <g id="Layer_1-2" data-name="Layer 1">
      <path class="cls-1" d="M20.47,14.26a26.87,26.87,0,0,0,3.26-1.43V10.29A25.42,25.42,0,0,0,20.47,9l-.6-1.42a26.11,26.11,0,0,0,1.27-3.27l-1.85-1.8A25.65,25.65,0,0,0,16,3.77l-1.45-.59A25.56,25.56,0,0,0,13.11,0h-2.6A24.25,24.25,0,0,0,9.14,3.19l-1.45.59A26.88,26.88,0,0,0,4.36,2.54L2.52,4.34A24.28,24.28,0,0,0,3.85,7.55L3.26,9A27.2,27.2,0,0,0,0,10.39v2.55a25.18,25.18,0,0,0,3.26,1.34l.6,1.42A26,26,0,0,0,2.59,19l1.84,1.81a26,26,0,0,0,3.27-1.31L9.16,20a25.46,25.46,0,0,0,1.46,3.18h2.6A24.39,24.39,0,0,0,14.59,20L16,19.45a27,27,0,0,0,3.33,1.25l1.84-1.8a24.05,24.05,0,0,0-1.34-3.2Zm-8.61,1.07a3.72,3.72,0,1,1,3.8-3.72A3.77,3.77,0,0,1,11.87,15.34Z"/>
    </g>
  </g>
</svg>
