<svg xmlns="http://www.w3.org/2000/svg" width="33.7" height="36.3" viewBox="0 0 33.7 36.3">
  <defs>
    <style>
      .cls-1 {
        fill: #fff;
        fill-rule: evenodd;
      }
    </style>
  </defs>
  <title>timer</title>
  <g id="Layer_2" data-name="Layer 2">
    <g id="Layer_1-2" data-name="Layer 1">
      <g>
        <path class="cls-1" d="M18.46,2.68V1.93h1V0H14.3V1.93h.94v.75A16.79,16.79,0,0,0,5,7.46L4.59,7l.62-.62L4.49,5.7,2.24,8,3,8.67,3.62,8l.46.46a16.84,16.84,0,1,0,14.38-5.8Zm-.9,30.82V31a.72.72,0,1,0-1.43,0V33.5A14.07,14.07,0,0,1,2.8,20.16H5.2a.72.72,0,1,0,0-1.43H2.8A14.07,14.07,0,0,1,16.14,5.39s0,0,0,0V8a.72.72,0,1,0,1.43,0V5.43s0,0,0,0A14.07,14.07,0,0,1,30.9,18.73H28.48a.72.72,0,0,0,0,1.43H30.9A14.06,14.06,0,0,1,17.57,33.5Z"/>
        <path class="cls-1" d="M18.17,20a1.38,1.38,0,0,0,.09-.45A1.41,1.41,0,1,0,16.85,21a1.41,1.41,0,0,0,.21,0l0,0L22.93,26l1.57.42-.78-1.62Z"/>
      </g>
    </g>
  </g>
</svg>
