<svg xmlns="http://www.w3.org/2000/svg" width="32.99" height="32.99" viewBox="0 0 32.99 32.99">
  <defs>
    <style>
      .cls-1 {
        fill: #fff;
      }
    </style>
  </defs>
  <title>plus</title>
  <g id="Layer_2" data-name="Layer 2">
    <g id="Layer_1-2" data-name="Layer 1">
      <g>
        <path class="cls-1" d="M16.49,0A16.49,16.49,0,1,0,33,16.49,16.49,16.49,0,0,0,16.49,0Zm0,30.43A13.94,13.94,0,1,1,30.43,16.49,13.94,13.94,0,0,1,16.49,30.43Z"/>
        <polygon class="cls-1" points="19.07 8.09 14 8.09 14 13.87 8.1 13.87 8.1 18.94 14 18.94 14 24.89 19.07 24.89 19.07 18.94 24.89 18.94 24.89 13.87 19.07 13.87 19.07 8.09"/>
      </g>
    </g>
  </g>
</svg>
